<svg xmlns="http://www.w3.org/2000/svg" viewBox="0 0 720 900" role="img" aria-labelledby="title desc">
<title id="title">Crow on a crescent moon</title>
<desc id="desc">A gothic scrapbook illustration of a black crow perched on a silver crescent moon among purple crystals, flowers, stars, and a potion bottle.</desc>
<defs>
  <radialGradient id="bg" cx="50%" cy="42%" r="72%"><stop offset="0" stop-color="#241a35"/><stop offset=".55" stop-color="#100d18"/><stop offset="1" stop-color="#07070c"/></radialGradient>
  <linearGradient id="moon" x1="0" y1="0" x2="1" y2="1"><stop stop-color="#f2edf8"/><stop offset=".5" stop-color="#b9b5c6"/><stop offset="1" stop-color="#766f82"/></linearGradient>
  <linearGradient id="crystal" x1="0" y1="0" x2="1" y2="1"><stop stop-color="#ff4fb8"/><stop offset=".45" stop-color="#9257d8"/><stop offset="1" stop-color="#43a7db"/></linearGradient>
  <filter id="glow"><feGaussianBlur stdDeviation="5" result="b"/><feMerge><feMergeNode in="b"/><feMergeNode in="SourceGraphic"/></feMerge></filter>
</defs>
<rect width="720" height="900" fill="url(#bg)"/>
<g fill="#d9d5e4" opacity=".85">
  <circle cx="90" cy="120" r="3"/><circle cx="154" cy="80" r="2"/><circle cx="610" cy="106" r="3"/><circle cx="560" cy="190" r="2"/><circle cx="655" cy="270" r="2"/><circle cx="92" cy="300" r="2"/><circle cx="180" cy="220" r="1.8"/>
  <path d="M132 170h30m-15-15v30M590 332h36m-18-18v36M520 88h22m-11-11v22" stroke="#e8e5ef" stroke-width="3"/>
</g>
<text x="360" y="78" text-anchor="middle" fill="#d8d2df" font-family="Arial, sans-serif" font-size="18" letter-spacing="7">COLLECTING MOMENTS • MAKING MAGIC</text>
<g transform="translate(116 128)">
  <path d="M286 64c-118 37-174 176-114 286 38 69 114 114 192 108-91-25-143-119-118-210 20-74 89-129 166-132-36-48-80-70-126-52z" fill="url(#moon)" stroke="#ddd7e4" stroke-width="5"/>
  <path d="M364 188c42-18 93 1 116 43 12 22 13 44 8 65 29 18 47 49 46 82-1 51-43 92-95 91-34 0-63-18-79-45-17 4-36 4-54-1-51-14-81-67-67-118 11-39 44-66 82-71 6-20 20-37 43-46z" fill="#0b0b11" stroke="#5b5470" stroke-width="4"/>
  <path d="M318 273c51-19 99-13 137 19-49-3-94 14-126 49 4-27 1-49-11-68z" fill="#15141e" stroke="#7d6f98" stroke-width="3"/>
  <path d="M445 226l75 22-72 14z" fill="#17151f" stroke="#7a7087" stroke-width="3"/>
  <circle cx="431" cy="218" r="9" fill="#ff4fb8"/><circle cx="434" cy="215" r="3" fill="#fff"/>
  <path d="M383 469l-12 53m45-50 8 52" stroke="#bbb4ca" stroke-width="5" stroke-linecap="round"/>
  <path d="M350 522h50m15 2h44" stroke="#8c829b" stroke-width="4" stroke-linecap="round"/>
</g>
<g filter="url(#glow)">
  <path d="M110 690l34-112 34 112z" fill="url(#crystal)" stroke="#e3d9ee" stroke-width="3"/><path d="M165 710l42-145 45 145z" fill="url(#crystal)" stroke="#dcd5e7" stroke-width="3"/>
  <path d="M520 704l35-126 41 126z" fill="url(#crystal)" stroke="#ddd6e8" stroke-width="3"/><path d="M580 722l28-96 33 96z" fill="url(#crystal)" stroke="#ddd6e8" stroke-width="3"/>
</g>
<g fill="none" stroke="#6b577c" stroke-width="5">
  <path d="M72 780c86-112 165-72 222-16M648 782c-88-114-164-73-222-15"/>
</g>
<g fill="#744d87" stroke="#c7b6d3" stroke-width="2">
  <circle cx="98" cy="766" r="20"/><circle cx="146" cy="790" r="15"/><circle cx="202" cy="760" r="18"/><circle cx="620" cy="768" r="20"/><circle cx="570" cy="796" r="15"/><circle cx="520" cy="764" r="18"/>
</g>
<g transform="translate(420 650)">
  <path d="M55 0h52v42c38 24 58 62 52 101-8 53-51 86-91 86s-83-33-91-86c-6-39 14-77 52-101V0h26z" fill="#23162f" stroke="#c5bdcf" stroke-width="4"/>
  <path d="M3 140c29-18 104-18 133 0-6 38-36 61-67 61S10 178 3 140z" fill="#c02a8a" opacity=".75"/>
  <circle cx="72" cy="159" r="8" fill="#f5d3ff"/><circle cx="98" cy="146" r="5" fill="#f5d3ff"/>
</g>
<g fill="#e6e2ea">
  <path d="M360 760l9 18 20 3-15 14 4 20-18-9-18 9 4-20-15-14 20-3z" opacity=".8"/>
</g>
<text x="360" y="855" text-anchor="middle" fill="#d8d2df" font-family="cursive" font-size="24">fig. 01 — keeper of little things</text>
</svg>